<?xml version="1.0" encoding="UTF-8" standalone="no"?>
<svg
   xmlns:dc="http://purl.org/dc/elements/1.1/"
   xmlns:cc="http://creativecommons.org/ns#"
   xmlns:rdf="http://www.w3.org/1999/02/22-rdf-syntax-ns#"
   xmlns:svg="http://www.w3.org/2000/svg"
   xmlns="http://www.w3.org/2000/svg"
   xmlns:sodipodi="http://sodipodi.sourceforge.net/DTD/sodipodi-0.dtd"
   xmlns:inkscape="http://www.inkscape.org/namespaces/inkscape"
   inkscape:export-ydpi="96"
   inkscape:export-xdpi="96"
   inkscape:export-filename="C:\xampp\htdocs\core-finals\lib\logo.png"
   width="113.24168mm"
   height="39.888561mm"
   viewBox="0 0 113.24168 39.888562"
   version="1.1"
   id="svg8"
   inkscape:version="1.0 (4035a4fb49, 2020-05-01)"
   sodipodi:docname="logo.svg">
  <defs
     id="defs2" />
  <sodipodi:namedview
     id="base"
     pagecolor="#ffffff"
     bordercolor="#666666"
     borderopacity="1.0"
     inkscape:pageopacity="0.0"
     inkscape:pageshadow="2"
     inkscape:zoom="1.4"
     inkscape:cx="192.11094"
     inkscape:cy="40.508629"
     inkscape:document-units="mm"
     inkscape:current-layer="layer1"
     inkscape:document-rotation="0"
     showgrid="false"
     fit-margin-top="0"
     fit-margin-left="0"
     fit-margin-right="0"
     fit-margin-bottom="0"
     inkscape:window-width="1424"
     inkscape:window-height="1030"
     inkscape:window-x="128"
     inkscape:window-y="0"
     inkscape:window-maximized="0" />
  <metadata
     id="metadata5">
    <rdf:RDF>
      <cc:Work
         rdf:about="">
        <dc:format>image/svg+xml</dc:format>
        <dc:type
           rdf:resource="http://purl.org/dc/dcmitype/StillImage" />
        <dc:title />
      </cc:Work>
    </rdf:RDF>
  </metadata>
  <g
     inkscape:label="Layer 1"
     inkscape:groupmode="layer"
     id="layer1"
     transform="translate(-40.897025,-64.123662)">
    <path
       style="fill:#000000;stroke-width:0.264583"
       d="m 113.56206,103.89217 c -0.0931,-0.0931 -0.1692,-2.7092 -0.1692,-5.813647 v -5.644444 h 0.66146 c 1.07437,0 0.88902,-1.258067 -0.41481,-2.815462 -2.06531,-2.466963 -2.21132,-2.932162 -2.31347,-7.370996 -0.0873,-3.792635 -0.064,-4.009844 0.5251,-4.894792 0.33904,-0.509323 1.11797,-1.164167 1.73095,-1.455208 l 1.11451,-0.529167 0.01,-4.713748 c 0.01,-4.748305 0.13543,-5.493563 1.04499,-6.1919 0.72328,-0.555314 2.09925,-0.403541 2.81308,0.310288 0.61305,0.613039 0.64944,0.817297 0.64944,3.645012 v 2.995582 l 1.07605,-0.102618 c 0.84639,-0.08072 1.21344,0.02646 1.71979,0.502149 0.35406,0.332623 0.64375,0.78642 0.64375,1.008439 0,0.313966 0.0705,0.333115 0.3175,0.08617 0.57655,-0.576555 1.79304,-0.364333 2.61327,0.455897 0.42537,0.425369 0.7734,0.949821 0.7734,1.165448 0,0.303397 0.23477,0.360562 1.03821,0.252797 0.8755,-0.117428 1.14905,-0.02843 1.74526,0.567778 l 0.70703,0.707033 -0.12152,4.682919 c -0.11772,4.536256 -0.15166,4.771757 -1.08379,7.519454 -1.1903,3.50869 -1.22369,4.109696 -0.23467,4.223496 l 0.7276,0.08372 0.0717,5.390123 c 0.0496,3.727847 -0.0208,5.501657 -0.22842,5.751777 -0.56479,0.68053 -0.76935,0.0706 -0.76935,-2.29397 v -2.365637 h -7.01146 -7.01146 v 2.365637 c 0,2.17271 -0.18716,2.91526 -0.62455,2.47787 z m 14.64747,-8.283091 v -2.38125 h -7.01146 -7.01146 v 2.38125 2.38125 h 7.01146 7.01146 z m -1.32292,-4.142033 c 0,-0.531869 0.4372,-2.288041 0.97156,-3.902605 0.90016,-2.719857 0.97999,-3.21978 1.08632,-6.803275 0.0733,-2.470568 0.0121,-4.059525 -0.16943,-4.398721 -0.39122,-0.731007 -1.25405,-0.902155 -1.8863,-0.374161 -0.45629,0.381047 -0.53417,0.81985 -0.59435,3.34892 -0.0566,2.379867 -0.1416,2.910417 -0.46613,2.910417 -0.33213,0 -0.40792,-0.647452 -0.46458,-3.96875 -0.0613,-3.592343 -0.11765,-4.01034 -0.59434,-4.407254 -0.54546,-0.454166 -1.44914,-0.383612 -1.78947,0.139711 -0.10688,0.164336 -0.25385,1.758497 -0.32661,3.542581 -0.18913,4.637538 -0.64466,4.274799 -0.73499,-0.585276 -0.0774,-4.166393 -0.28941,-4.907471 -1.40379,-4.907471 -1.0929,0 -1.30081,0.658479 -1.30081,4.119941 0,2.746627 -0.0654,3.288393 -0.39687,3.288393 -0.34195,0 -0.39688,-0.89473 -0.39688,-6.465068 0,-6.094102 -0.17056,-7.822433 -0.77198,-7.822433 -0.14076,0 -0.29253,0.506016 -0.33728,1.12448 -0.10181,1.407173 -0.58275,1.36444 -0.69189,-0.06148 -0.067,-0.87505 -0.35384,-1.323612 -0.63752,-0.996857 -0.0316,0.03638 -0.12088,4.172255 -0.19844,9.190833 -0.13004,8.415031 -0.17702,9.131608 -0.60403,9.213672 -0.42329,0.08135 -0.46302,-0.231143 -0.46302,-3.641378 v -3.730361 l -0.80545,0.416514 c -1.60773,0.831386 -1.88334,1.693329 -1.77473,5.5502 0.10835,3.847385 0.32602,4.503989 2.27502,6.862555 0.64875,0.785071 1.13375,1.688799 1.23824,2.307242 l 0.17177,1.016661 h 5.53299 5.53299 z M 45.156963,73.28682 c -2.342966,-4.78292 -4.259938,-8.801279 -4.259938,-8.929688 0,-0.128408 0.187662,-0.23347 0.417028,-0.23347 0.283818,0 1.649807,2.51431 4.276395,7.871354 l 3.859367,7.871355 3.837692,-7.871355 c 2.877762,-5.902476 3.954671,-7.871354 4.305359,-7.871354 0.376595,0 -0.05115,1.069122 -2.196547,5.490104 -1.465319,3.019558 -3.410136,7.037917 -4.321817,8.929688 L 49.4169,81.983037 Z m 15.319229,8.317161 c -1.29185,-0.257279 -1.88458,-0.622833 -2.985147,-1.841029 -1.779555,-1.969755 -1.926286,-4.644318 -0.368146,-6.710457 2.247891,-2.980771 6.258595,-3.068355 8.72196,-0.190468 3.268469,3.818471 -0.36692,9.738079 -5.368667,8.741954 z m 3.121994,-1.183305 c 1.642321,-0.854499 2.507858,-2.358191 2.490175,-4.326164 -0.04305,-4.79125 -6.396968,-6.195356 -8.58832,-1.897871 -1.177202,2.308624 0.0426,5.501399 2.446985,6.404866 0.777854,0.292285 2.948464,0.184781 3.65116,-0.180831 z m 15.081113,1.164738 c -4.192628,-0.754904 -5.893388,-6.125954 -2.89863,-9.153955 2.072775,-2.095784 5.997885,-2.195478 7.77226,-0.197409 0.439224,0.494597 0.33265,0.634169 -3.09988,4.059632 l -3.554743,3.547426 0.718632,0.473909 c 1.072624,0.707353 3.061039,0.627968 4.434698,-0.17705 0.614201,-0.359945 1.186471,-0.836195 1.271711,-1.058333 0.261015,-0.680186 0.741146,-0.448801 0.65219,0.314302 -0.06147,0.527344 -0.400108,0.906806 -1.274344,1.427982 -1.329066,0.792322 -2.56195,1.026366 -4.021894,0.763496 z m 0.836617,-5.677493 3.289076,-3.296992 -1.176378,-0.533656 c -1.509363,-0.684711 -2.449028,-0.680859 -3.888428,0.01594 -2.316882,1.121584 -3.293533,4.14233 -2.030542,6.280403 0.270082,0.45721 0.496938,0.831292 0.504127,0.831292 0.0072,0 1.493155,-1.483646 3.302145,-3.296991 z m 57.991914,5.545361 c -2.63335,-0.815877 -3.21288,-2.055095 -3.21288,-6.87008 0,-3.006165 0.0636,-3.580373 0.39687,-3.580373 0.332,0 0.39694,0.551398 0.39729,3.373437 5.2e-4,3.839528 0.30112,4.797774 1.82465,5.81556 1.82156,1.216879 4.37053,0.496674 5.38442,-1.521354 0.36801,-0.732477 0.46269,-1.610617 0.46302,-4.294206 3.5e-4,-2.822039 0.0653,-3.373437 0.39729,-3.373437 0.33955,0 0.39687,0.764352 0.39687,5.291667 0,4.527314 -0.0573,5.291666 -0.39687,5.291666 -0.27499,0 -0.39688,-0.276378 -0.39688,-0.899903 v -0.899904 l -0.80091,0.748162 c -0.4405,0.411489 -1.18464,0.825334 -1.65364,0.919657 -0.46901,0.09432 -1.03133,0.213066 -1.24961,0.263875 -0.21829,0.05081 -0.91561,-0.06834 -1.54962,-0.264767 z M 71.064799,81.12273 c -0.50642,-0.254435 -1.19103,-0.86717 -1.521354,-1.361633 -0.580644,-0.869172 -0.600586,-1.099781 -0.600586,-6.945312 0,-5.198091 0.05568,-6.04629 0.396875,-6.04629 0.319704,0 0.396875,0.411575 0.396875,2.116667 v 2.116667 h 1.5875 c 1.234723,0 1.5875,0.08819 1.5875,0.396875 0,0.30868 -0.352777,0.396875 -1.5875,0.396875 h -1.5875 l 5.29e-4,3.108854 c 5.3e-4,3.762146 0.343334,4.684559 2.040523,5.490104 1.137978,0.540124 1.504918,1.190955 0.671046,1.190214 -0.254661,-2.26e-4 -0.877366,-0.208585 -1.383789,-0.463021 z m 14.987784,0.287043 c -0.09701,-0.09701 -0.17639,-2.478263 -0.17639,-5.291666 0,-4.938889 0.01825,-5.115278 0.529167,-5.115278 0.350078,0 0.529166,0.176389 0.529166,0.521193 0,0.494303 0.04968,0.487477 0.962965,-0.132292 1.582078,-1.073629 4.091289,-0.711578 4.281998,0.617844 l 0.08559,0.596623 -0.879337,-0.536112 c -1.101942,-0.671828 -1.9837,-0.678674 -2.978163,-0.02312 -1.316721,0.867987 -1.453484,1.39466 -1.463673,5.636592 -0.0074,3.071094 -0.08454,3.902605 -0.362154,3.902605 -0.194029,0 -0.432154,-0.07937 -0.529166,-0.17639 z m 16.227777,-8.554861 v -8.73125 h 3.175 c 2.64583,0 3.175,0.06615 3.175,0.396875 0,0.326319 -0.47037,0.396875 -2.64583,0.396875 h -2.64584 v 4.630208 4.630209 h 2.24896 c 1.82269,0 2.24896,0.07523 2.24896,0.396875 0,0.32165 -0.42627,0.396875 -2.24896,0.396875 h -2.24896 v 3.307292 c 0,3.130902 -0.0282,3.307291 -0.52916,3.307291 -0.51848,0 -0.52917,-0.176389 -0.52917,-8.73125 z m 42.8625,8.565072 c 0,-0.0914 0.90004,-1.534889 2.00009,-3.207757 l 2.00008,-3.041579 -0.8964,-1.356305 c -2.02782,-3.068172 -1.90812,-2.811514 -1.31124,-2.811514 0.35823,0 0.86208,0.514693 1.55178,1.585186 0.56173,0.871852 1.08085,1.585185 1.15361,1.585185 0.0728,0 0.59188,-0.713333 1.15361,-1.585185 0.67366,-1.045593 1.19684,-1.585186 1.53696,-1.585186 0.58222,0 0.59842,-0.03894 -0.92866,2.233231 -0.581,0.864475 -1.05544,1.697912 -1.05432,1.852083 0.001,0.154171 0.8544,1.571593 1.89618,3.149827 1.04178,1.578234 1.89415,2.977219 1.89415,3.108854 0,0.131636 -0.17594,0.239338 -0.39096,0.239338 -0.21503,0 -1.23898,-1.263958 -2.27546,-2.808796 l -1.88449,-2.808796 -1.81557,2.808796 c -1.01096,1.564015 -1.99589,2.808796 -2.22246,2.808796 -0.2238,0 -0.4069,-0.07478 -0.4069,-0.166178 z"
       id="path847" />
  </g>
</svg>
